<?xml version='1.0' encoding='UTF-8' standalone='no'?>
<!-- Created with Fritzing (http://www.fritzing.org/) -->
<svg xmlns="http://www.w3.org/2000/svg" version="1.2" baseProfile="tiny" xmlns:svg="http://www.w3.org/2000/svg" height="2.3898in" viewBox="0 0 70.4205 172.066" y="0in"  x="0in" width="0.978063in">
 <g transform="matrix(-1, 0, 0, 1, 70.4205, 0)">
  <g partID="57710">
   <g id="board" >
    <rect id="boardoutline" stroke-width="0.5" height="171.49" fill="none" fill-opacity="0.5" y="0.288" stroke="black"  width="69.8445" x="0.288"/>
   </g>
  </g>
  <g partID="854847412">
   <g transform="translate(8.14804,37.7394)">
    <g id="copper1" >
     <!-- <rect width="55" x="10" y="15.5" fill="none" height="55" stroke="rgb(255, 191, 0)" stroke-width="20" />  -->
     <circle id="connector0pin" r="1.98" stroke-width="2.16" cy="3.096" fill="black" stroke="black"  cx="2.7"/>
     <circle id="connector1pin" r="1.98" stroke-width="2.16" cy="3.096" fill="black" stroke="black"  cx="31.5"/>
    </g>
   </g>
  </g>
  <g partID="854836222">
   <g transform="translate(19.7545,26.0329)">
    <g transform="matrix(0,-1,1,0,0,0)">
     <g id="copper1" >
      <g id="copper0" >
       <rect id="square" stroke-width="2.16" height="4.176" fill="black" y="2.952" stroke="black"  width="4.176" x="2.952"/>
       <circle id="connector0pin" r="2.088" stroke-width="2.16" cy="5.04" fill="black" stroke="black"  cx="5.04"/>
       <circle id="connector1pin" r="2.088" stroke-width="2.16" cy="12.24" fill="black" stroke="black"  cx="5.04"/>
       <circle id="connector2pin" r="2.088" stroke-width="2.16" cy="19.44" fill="black" stroke="black"  cx="5.04"/>
      </g>
     </g>
    </g>
   </g>
  </g>
  <g partID="854861642">
   <g transform="translate(58.9024,49.6006)">
    <g transform="matrix(-1,-2.77556e-17,2.77556e-17,-1,0,0)">
     <g id="copper1" >
      <!-- <rect width="55" x="10" y="15.5" fill="none" height="55" stroke="rgb(255, 191, 0)" stroke-width="20" />  -->
      <circle id="connector0pin" r="1.98" stroke-width="2.16" cy="3.096" fill="black" stroke="black"  cx="2.7"/>
      <circle id="connector1pin" r="1.98" stroke-width="2.16" cy="3.096" fill="black" stroke="black"  cx="31.5"/>
     </g>
    </g>
   </g>
  </g>
  <g partID="854863692">
   <g transform="translate(44.2345,27.2914)">
    <g transform="matrix(0,1,-1,0,0,0)">
     <g id="copper1" gorn="0.2" >
      <g id="copper0" gorn="0.2.0" >
       <rect id="square" stroke-width="2.16" gorn="0.2.0.0" height="4.176" fill="black" y="2.952" stroke="black"  width="4.176" x="2.952"/>
       <circle id="connector0pin" r="2.088" stroke-width="2.16" gorn="0.2.0.1" cy="5.04" fill="black" stroke="black"  cx="5.04"/>
       <circle id="connector1pin" r="2.088" stroke-width="2.16" gorn="0.2.0.2" cy="12.24" fill="black" stroke="black"  cx="5.04"/>
       <circle id="connector2pin" r="2.088" stroke-width="2.16" gorn="0.2.0.3" cy="19.44" fill="black" stroke="black"  cx="5.04"/>
      </g>
     </g>
    </g>
   </g>
  </g>
  <g partID="854865102">
   <g transform="translate(47.4152,14.6118)">
    <g id="copper1" >
     <circle id="connector1pad" r="1.7008" stroke-width="1.85384" cy="10.6336" fill="black" stroke="black"  cx="8.7872"/>
     <rect stroke-width="1.85384" height="3.4016" fill="black" y="8.9328" stroke="black"  x="7.0864" width="3.4016"/>
     <circle id="connector0pad" r="1.7008" stroke-width="1.85384" cy="3.5464" fill="black" stroke="black"  cx="8.7872"/>
    </g>
   </g>
  </g>
  <g partID="854869702">
   <g transform="translate(0.138776,9.02496)">
    <g transform="matrix(0,-1,1,0,0,0)">
     <g id="copper1" >
      <g id="copper0" >
       <rect id="square" stroke-width="2.16" height="4.176" fill="black" y="2.952" stroke="black"  width="4.176" x="2.952"/>
       <circle id="connector0pin" r="2.088" stroke-width="2.16" cy="5.04" fill="black" stroke="black"  cx="5.04"/>
       <circle id="connector1pin" r="2.088" stroke-width="2.16" cy="12.24" fill="black" stroke="black"  cx="5.04"/>
      </g>
     </g>
    </g>
   </g>
  </g>
  <g partID="854852682">
   <g transform="translate(10.9644,52.783)">
    <g id="copper1" >
     <g id="copper0" >
      <circle id="connector16pad" r="1.908" stroke-width="1.944" cy="10.8" fill="black" stroke="black"  cx="3.6"/>
      <rect stroke-width="1.944" height="3.816" fill="black" y="8.892" stroke="black"  x="1.692" width="3.814"/>
      <circle id="connector17pad" r="1.908" stroke-width="1.944" cy="18" fill="black" stroke="black"  cx="3.6"/>
      <circle id="connector18pad" r="1.908" stroke-width="1.944" cy="25.2" fill="black" stroke="black"  cx="3.6"/>
      <circle id="connector19pad" r="1.908" stroke-width="1.944" cy="32.4" fill="black" stroke="black"  cx="3.6"/>
      <circle id="connector20pad" r="1.908" stroke-width="1.944" cy="39.6" fill="black" stroke="black"  cx="3.6"/>
      <circle id="connector21pad" r="1.908" stroke-width="1.944" cy="46.8" fill="black" stroke="black"  cx="3.6"/>
      <circle id="connector22pad" r="1.908" stroke-width="1.944" cy="54" fill="black" stroke="black"  cx="3.6"/>
      <circle id="connector23pad" r="1.908" stroke-width="1.944" cy="61.2" fill="black" stroke="black"  cx="3.6"/>
      <circle id="connector24pad" r="1.908" stroke-width="1.944" cy="68.4" fill="black" stroke="black"  cx="3.6"/>
      <circle id="connector25pad" r="1.908" stroke-width="1.944" cy="75.6" fill="black" stroke="black"  cx="3.6"/>
      <circle id="connector26pad" r="1.908" stroke-width="1.944" cy="82.8" fill="black" stroke="black"  cx="3.6"/>
      <circle id="connector27pad" r="1.908" stroke-width="1.944" cy="90" fill="black" stroke="black"  cx="3.6"/>
      <circle id="connector28pad" r="1.908" stroke-width="1.944" cy="97.2" fill="black" stroke="black"  cx="3.6"/>
      <circle id="connector29pad" r="1.908" stroke-width="1.944" cy="104.4" fill="black" stroke="black"  cx="3.6"/>
      <circle id="connector30pad" r="1.908" stroke-width="1.944" cy="111.6" fill="black" stroke="black"  cx="3.6"/>
      <circle id="connector31pad" r="1.908" stroke-width="1.944" cy="10.8" fill="black" stroke="black"  cx="46.8"/>
      <circle id="connector32pad" r="1.908" stroke-width="1.944" cy="18" fill="black" stroke="black"  cx="46.8"/>
      <circle id="connector33pad" r="1.908" stroke-width="1.944" cy="25.2" fill="black" stroke="black"  cx="46.8"/>
      <circle id="connector34pad" r="1.908" stroke-width="1.944" cy="32.4" fill="black" stroke="black"  cx="46.8"/>
      <circle id="connector35pad" r="1.908" stroke-width="1.944" cy="39.6" fill="black" stroke="black"  cx="46.8"/>
      <circle id="connector36pad" r="1.908" stroke-width="1.944" cy="46.8" fill="black" stroke="black"  cx="46.8"/>
      <circle id="connector37pad" r="1.908" stroke-width="1.944" cy="54" fill="black" stroke="black"  cx="46.8"/>
      <circle id="connector38pad" r="1.908" stroke-width="1.944" cy="61.2" fill="black" stroke="black"  cx="46.8"/>
      <circle id="connector39pad" r="1.908" stroke-width="1.944" cy="68.4" fill="black" stroke="black"  cx="46.8"/>
      <circle id="connector40pad" r="1.908" stroke-width="1.944" cy="75.6" fill="black" stroke="black"  cx="46.8"/>
      <circle id="connector41pad" r="1.908" stroke-width="1.944" cy="82.8" fill="black" stroke="black"  cx="46.8"/>
      <circle id="connector42pad" r="1.908" stroke-width="1.944" cy="90" fill="black" stroke="black"  cx="46.8"/>
      <circle id="connector43pad" r="1.908" stroke-width="1.944" cy="97.2" fill="black" stroke="black"  cx="46.8"/>
      <circle id="connector44pad" r="1.908" stroke-width="1.944" cy="104.4" fill="black" stroke="black"  cx="46.8"/>
      <circle id="connector45pad" r="1.908" stroke-width="1.944" cy="111.6" fill="black" stroke="black"  cx="46.8"/>
     </g>
    </g>
   </g>
  </g>
 </g>
</svg>
