<?xml version='1.0' encoding='UTF-8' standalone='no'?>
<!-- Created with Fritzing (http://www.fritzing.org/) -->
<svg xmlns="http://www.w3.org/2000/svg" version="1.2" baseProfile="tiny" xmlns:svg="http://www.w3.org/2000/svg" height="2.3898in" viewBox="0 0 70.4205 172.066" y="0in"  x="0in" width="0.978063in">
 <g partID="57710">
  <g id="board" >
   <rect id="boardoutline" stroke-width="0.5" height="171.49" fill="none" fill-opacity="0.5" y="0.288" stroke="black"  width="69.8445" x="0.288"/>
  </g>
 </g>
 <g partID="854847412">
  <g transform="translate(8.14804,37.7394)">
   <g id="copper1" >
    <!-- <rect width="55" x="10" y="15.5" fill="none" height="55" stroke="rgb(255, 191, 0)" stroke-width="20" />  -->
    <circle id="connector0pin" r="1.98" stroke-width="1.44" cy="3.096" fill="none" stroke="black"  cx="2.7"/>
    <circle id="connector1pin" r="1.98" stroke-width="1.44" cy="3.096" fill="none" stroke="black"  cx="31.5"/>
   </g>
  </g>
 </g>
 <g partID="854836222">
  <g transform="translate(19.7545,26.0329)">
   <g transform="matrix(0,-1,1,0,0,0)">
    <g id="copper1" >
     <g id="copper0" >
      <rect id="square" stroke-width="1.44" height="4.176" fill="none" y="2.952" stroke="black"  width="4.176" x="2.952"/>
      <circle id="connector0pin" r="2.088" stroke-width="1.44" cy="5.04" fill="none" stroke="black"  cx="5.04"/>
      <circle id="connector1pin" r="2.088" stroke-width="1.44" cy="12.24" fill="none" stroke="black"  cx="5.04"/>
      <circle id="connector2pin" r="2.088" stroke-width="1.44" cy="19.44" fill="none" stroke="black"  cx="5.04"/>
     </g>
    </g>
   </g>
  </g>
 </g>
 <g partID="854861642">
  <g transform="translate(58.9024,49.6006)">
   <g transform="matrix(-1,-2.77556e-17,2.77556e-17,-1,0,0)">
    <g id="copper1" >
     <!-- <rect width="55" x="10" y="15.5" fill="none" height="55" stroke="rgb(255, 191, 0)" stroke-width="20" />  -->
     <circle id="connector0pin" r="1.98" stroke-width="1.44" cy="3.096" fill="none" stroke="black"  cx="2.7"/>
     <circle id="connector1pin" r="1.98" stroke-width="1.44" cy="3.096" fill="none" stroke="black"  cx="31.5"/>
    </g>
   </g>
  </g>
 </g>
 <g partID="854863692">
  <g transform="translate(44.2345,27.2914)">
   <g transform="matrix(0,1,-1,0,0,0)">
    <g id="copper1" gorn="0.2" >
     <g id="copper0" gorn="0.2.0" >
      <rect id="square" stroke-width="1.44" gorn="0.2.0.0" height="4.176" fill="none" y="2.952" stroke="black"  width="4.176" x="2.952"/>
      <circle id="connector0pin" r="2.088" stroke-width="1.44" gorn="0.2.0.1" cy="5.04" fill="none" stroke="black"  cx="5.04"/>
      <circle id="connector1pin" r="2.088" stroke-width="1.44" gorn="0.2.0.2" cy="12.24" fill="none" stroke="black"  cx="5.04"/>
      <circle id="connector2pin" r="2.088" stroke-width="1.44" gorn="0.2.0.3" cy="19.44" fill="none" stroke="black"  cx="5.04"/>
     </g>
    </g>
   </g>
  </g>
 </g>
 <g partID="854865102">
  <g transform="translate(47.4152,14.6118)">
   <g id="copper1" >
    <circle id="connector1pad" r="1.7008" stroke-width="1.13384" cy="10.6336" fill="none" stroke="black"  cx="8.7872"/>
    <rect stroke-width="1.13384" height="3.4016" fill="none" y="8.9328" stroke="black"  x="7.0864" width="3.4016"/>
    <circle id="connector0pad" r="1.7008" stroke-width="1.13384" cy="3.5464" fill="none" stroke="black"  cx="8.7872"/>
   </g>
  </g>
 </g>
 <g partID="854869702">
  <g transform="translate(0.138776,9.02496)">
   <g transform="matrix(0,-1,1,0,0,0)">
    <g id="copper1" >
     <g id="copper0" >
      <rect id="square" stroke-width="1.44" height="4.176" fill="none" y="2.952" stroke="black"  width="4.176" x="2.952"/>
      <circle id="connector0pin" r="2.088" stroke-width="1.44" cy="5.04" fill="none" stroke="black"  cx="5.04"/>
      <circle id="connector1pin" r="2.088" stroke-width="1.44" cy="12.24" fill="none" stroke="black"  cx="5.04"/>
     </g>
    </g>
   </g>
  </g>
 </g>
 <g partID="854852682">
  <g transform="translate(10.9644,52.783)">
   <g id="copper1" >
    <g id="copper0" >
     <circle id="connector16pad" r="1.908" stroke-width="1.224" cy="10.8" fill="none" stroke="black"  cx="3.6"/>
     <rect stroke-width="1.224" height="3.816" fill="none" y="8.892" stroke="black"  x="1.692" width="3.814"/>
     <circle id="connector17pad" r="1.908" stroke-width="1.224" cy="18" fill="none" stroke="black"  cx="3.6"/>
     <circle id="connector18pad" r="1.908" stroke-width="1.224" cy="25.2" fill="none" stroke="black"  cx="3.6"/>
     <circle id="connector19pad" r="1.908" stroke-width="1.224" cy="32.4" fill="none" stroke="black"  cx="3.6"/>
     <circle id="connector20pad" r="1.908" stroke-width="1.224" cy="39.6" fill="none" stroke="black"  cx="3.6"/>
     <circle id="connector21pad" r="1.908" stroke-width="1.224" cy="46.8" fill="none" stroke="black"  cx="3.6"/>
     <circle id="connector22pad" r="1.908" stroke-width="1.224" cy="54" fill="none" stroke="black"  cx="3.6"/>
     <circle id="connector23pad" r="1.908" stroke-width="1.224" cy="61.2" fill="none" stroke="black"  cx="3.6"/>
     <circle id="connector24pad" r="1.908" stroke-width="1.224" cy="68.4" fill="none" stroke="black"  cx="3.6"/>
     <circle id="connector25pad" r="1.908" stroke-width="1.224" cy="75.6" fill="none" stroke="black"  cx="3.6"/>
     <circle id="connector26pad" r="1.908" stroke-width="1.224" cy="82.8" fill="none" stroke="black"  cx="3.6"/>
     <circle id="connector27pad" r="1.908" stroke-width="1.224" cy="90" fill="none" stroke="black"  cx="3.6"/>
     <circle id="connector28pad" r="1.908" stroke-width="1.224" cy="97.2" fill="none" stroke="black"  cx="3.6"/>
     <circle id="connector29pad" r="1.908" stroke-width="1.224" cy="104.4" fill="none" stroke="black"  cx="3.6"/>
     <circle id="connector30pad" r="1.908" stroke-width="1.224" cy="111.6" fill="none" stroke="black"  cx="3.6"/>
     <circle id="connector31pad" r="1.908" stroke-width="1.224" cy="10.8" fill="none" stroke="black"  cx="46.8"/>
     <circle id="connector32pad" r="1.908" stroke-width="1.224" cy="18" fill="none" stroke="black"  cx="46.8"/>
     <circle id="connector33pad" r="1.908" stroke-width="1.224" cy="25.2" fill="none" stroke="black"  cx="46.8"/>
     <circle id="connector34pad" r="1.908" stroke-width="1.224" cy="32.4" fill="none" stroke="black"  cx="46.8"/>
     <circle id="connector35pad" r="1.908" stroke-width="1.224" cy="39.6" fill="none" stroke="black"  cx="46.8"/>
     <circle id="connector36pad" r="1.908" stroke-width="1.224" cy="46.8" fill="none" stroke="black"  cx="46.8"/>
     <circle id="connector37pad" r="1.908" stroke-width="1.224" cy="54" fill="none" stroke="black"  cx="46.8"/>
     <circle id="connector38pad" r="1.908" stroke-width="1.224" cy="61.2" fill="none" stroke="black"  cx="46.8"/>
     <circle id="connector39pad" r="1.908" stroke-width="1.224" cy="68.4" fill="none" stroke="black"  cx="46.8"/>
     <circle id="connector40pad" r="1.908" stroke-width="1.224" cy="75.6" fill="none" stroke="black"  cx="46.8"/>
     <circle id="connector41pad" r="1.908" stroke-width="1.224" cy="82.8" fill="none" stroke="black"  cx="46.8"/>
     <circle id="connector42pad" r="1.908" stroke-width="1.224" cy="90" fill="none" stroke="black"  cx="46.8"/>
     <circle id="connector43pad" r="1.908" stroke-width="1.224" cy="97.2" fill="none" stroke="black"  cx="46.8"/>
     <circle id="connector44pad" r="1.908" stroke-width="1.224" cy="104.4" fill="none" stroke="black"  cx="46.8"/>
     <circle id="connector45pad" r="1.908" stroke-width="1.224" cy="111.6" fill="none" stroke="black"  cx="46.8"/>
    </g>
   </g>
  </g>
 </g>
 <g partID="854909360">
  <line y2="44.4447" stroke-width="1.728" x2="56.2024" y1="27.1793" x1="56.2024" stroke="black" stroke-linecap="round"/>
 </g>
 <g partID="854915400">
  <line y2="47.7095" stroke-width="1.728" x2="25.7314" y1="52.2525" x1="19.4305" stroke="black" stroke-linecap="round"/>
 </g>
 <g partID="854909560">
  <line y2="23.1609" stroke-width="1.728" x2="31.9945" y1="30.1634" x1="31.9945" stroke="black" stroke-linecap="round"/>
 </g>
 <g partID="854909480">
  <line y2="52.2525" stroke-width="1.728" x2="19.4305" y1="89.107" x1="19.3336" stroke="black" stroke-linecap="round"/>
 </g>
 <g partID="854909420">
  <line y2="89.107" stroke-width="1.728" x2="19.3337" y1="91.1964" x1="16.292" stroke="black" stroke-linecap="round"/>
 </g>
 <g partID="854916050">
  <line y2="57.833" stroke-width="1.728" x2="64.7156" y1="9.64448" x1="64.7156" stroke="black" stroke-linecap="round"/>
 </g>
 <g partID="854915020">
  <line y2="62.2471" stroke-width="1.728" x2="59.3793" y1="57.833" x1="64.7156" stroke="black" stroke-linecap="round"/>
 </g>
 <g partID="854912830">
  <line y2="9.64449" stroke-width="1.728" x2="64.7156" y1="4.04512" x1="59.1162" stroke="black" stroke-linecap="round"/>
 </g>
 <g partID="854909940">
  <line y2="4.04512" stroke-width="1.728" x2="59.1162" y1="3.98775" x1="14.5468" stroke="black" stroke-linecap="round"/>
 </g>
 <g partID="854910200">
  <line y2="38.7783" stroke-width="1.728" x2="39.5384" y1="34.4964" x1="39.31" stroke="black" stroke-linecap="round"/>
 </g>
 <g partID="854915290">
  <line y2="49.3491" stroke-width="1.728" x2="44.8633" y1="26.6123" x1="44.8633" stroke="black" stroke-linecap="round"/>
 </g>
 <g partID="854911340">
  <line y2="26.6123" stroke-width="1.728" x2="44.8633" y1="22.5192" x1="40.7342" stroke="black" stroke-linecap="round"/>
 </g>
 <g partID="854911560">
  <line y2="141.412" stroke-width="1.728" x2="16.15" y1="128.77" x1="30.7748" stroke="black" stroke-linecap="round"/>
 </g>
 <g partID="854911540">
  <line y2="128.77" stroke-width="1.728" x2="30.7747" y1="57.807" x1="30.7188" stroke="black" stroke-linecap="round"/>
 </g>
 <g partID="854911460">
  <line y2="57.807" stroke-width="1.728" x2="30.7188" y1="49.3491" x1="44.8633" stroke="black" stroke-linecap="round"/>
 </g>
 <g partID="854913120">
  <line y2="40.8262" stroke-width="1.728" x2="5.21551" y1="15.2438" x1="5.15876" stroke="black" stroke-linecap="round"/>
 </g>
 <g partID="854912720">
  <line y2="40.8321" stroke-width="1.728" x2="8.78807" y1="40.8262" x1="5.21548" stroke="black" stroke-linecap="round"/>
 </g>
 <g partID="854912610">
  <line y2="77.6033" stroke-width="1.728" x2="5.21548" y1="40.8262" x1="5.21548" stroke="black" stroke-linecap="round"/>
 </g>
 <g partID="854912400">
  <line y2="83.8631" stroke-width="1.728" x2="12.9363" y1="77.6033" x1="5.21548" stroke="black" stroke-linecap="round"/>
 </g>
 <g partID="854912290">
  <line y2="15.2438" stroke-width="1.728" x2="5.15871" y1="6.15296" x1="5.1749" stroke="black" stroke-linecap="round"/>
 </g>
 <g partID="854915070">
  <line y2="15.2438" stroke-width="1.728" x2="5.15868" y1="15.2438" x1="19.4116" stroke="black" stroke-linecap="round"/>
 </g>
 <g partID="854913740">
  <line y2="15.2439" stroke-width="1.728" x2="19.4116" y1="19.4103" x1="23.3127" stroke="black" stroke-linecap="round"/>
 </g>
 <g partID="854915980">
  <line y2="42.8906" stroke-width="1.728" x2="39.5078" y1="46.4646" x1="39.264" stroke="black" stroke-linecap="round"/>
 </g>
 <g partID="854915910">
  <line y2="15.2438" stroke-width="1.728" x2="44.8633" y1="21.0129" x1="50.4627" stroke="black" stroke-linecap="round"/>
 </g>
 <g partID="854915660">
  <line y2="19.269" stroke-width="1.728" x2="33.3093" y1="15.2438" x1="36.3794" stroke="black" stroke-linecap="round"/>
 </g>
 <g partID="854915180">
  <line y2="19.0634" stroke-width="1.728" x2="25.7833" y1="9.64448" x1="30.6104" stroke="black" stroke-linecap="round"/>
 </g>
 <g partID="854914800">
  <line y2="9.64448" stroke-width="1.728" x2="30.6104" y1="9.64448" x1="50.4627" stroke="black" stroke-linecap="round"/>
 </g>
 <g partID="854914580">
  <line y2="9.64456" stroke-width="1.728" x2="50.4626" y1="16.5547" x1="55.1213" stroke="black" stroke-linecap="round"/>
 </g>
 <g partID="854914330">
  <line y2="15.2438" stroke-width="1.728" x2="36.3794" y1="15.2438" x1="44.8633" stroke="black" stroke-linecap="round"/>
 </g>
 <g partID="854914190">
  <line y2="52.2336" stroke-width="1.728" x2="50.4627" y1="80.5698" x1="50.4627" stroke="black" stroke-linecap="round"/>
 </g>
 <g partID="854914120">
  <line y2="80.5698" stroke-width="1.728" x2="50.4627" y1="84.0636" x1="55.9924" stroke="black" stroke-linecap="round"/>
 </g>
 <g partID="854914110">
  <line y2="21.0129" stroke-width="1.728" x2="50.4627" y1="52.2336" x1="50.4627" stroke="black" stroke-linecap="round"/>
 </g>
 <g partID="854910540">
  <line y2="46.4646" stroke-width="1.728" x2="39.264" y1="54.9402" x1="24.9851" stroke="black" stroke-linecap="round"/>
 </g>
 <g partID="854910380">
  <line y2="54.9402" stroke-width="1.728" x2="24.985" y1="91.8451" x1="24.9232" stroke="black" stroke-linecap="round"/>
 </g>
 <g partID="854910340">
  <line y2="91.8451" stroke-width="1.728" x2="24.9233" y1="98.3288" x1="16.2436" stroke="black" stroke-linecap="round"/>
 </g>
</svg>
